<svg xmlns="http://www.w3.org/2000/svg" viewBox="0 0 39.27 39.27"><g id="Capa_2" data-name="Capa 2"><g id="Capa_1-2" data-name="Capa 1"><path d="M27,0H12.27A12.28,12.28,0,0,0,0,12.27V27A12.27,12.27,0,0,0,12.27,39.27H27A12.27,12.27,0,0,0,39.27,27V12.27A12.27,12.27,0,0,0,27,0Zm8.59,27A8.6,8.6,0,0,1,27,35.59H12.27A8.6,8.6,0,0,1,3.68,27V12.27a8.61,8.61,0,0,1,8.59-8.59H27a8.6,8.6,0,0,1,8.59,8.59Z" fill="#fff"/><path d="M19.64,9.82a9.82,9.82,0,1,0,9.81,9.82A9.81,9.81,0,0,0,19.64,9.82Zm0,16a6.14,6.14,0,1,1,6.13-6.13A6.14,6.14,0,0,1,19.64,25.77Z" fill="#fff"/><circle cx="30.19" cy="9.08" r="1.31" fill="#fff"/></g></g></svg>