<svg xmlns="http://www.w3.org/2000/svg" viewBox="0 0 303.36 207.23"><g id="Capa_2" data-name="Capa 2"><g id="Capa_1-2" data-name="Capa 1"><path d="M282.9,20.46a70,70,0,0,0-98.92,0l-32.3,32.3-32.31-32.3a69.95,69.95,0,0,0-98.92,98.92l32.3,32.3,25.68,25.67h0L102.1,201a21.18,21.18,0,0,0,30-30l-19.39-19.39L87,126h0L50.41,89.43a27.59,27.59,0,0,1,39-39l32.31,32.3h0l30,30,29.95-30h0l32.3-32.3a27.59,27.59,0,1,1,39,39l-2.39,2.39a21.18,21.18,0,0,0,29.95,30l2.39-2.39a70,70,0,0,0,0-98.92Z" fill="#fff"/><path d="M223.67,123.75A21.23,21.23,0,1,0,244.9,145,21.25,21.25,0,0,0,223.67,123.75Z" fill="#fff"/></g></g></svg>