<svg xmlns="http://www.w3.org/2000/svg" viewBox="0 0 152.52 104.19"><g id="Capa_2" data-name="Capa 2"><g id="Capa_1-2" data-name="Capa 1"><g opacity="0.73"><path d="M142.23,10.29a35.19,35.19,0,0,0-49.73,0L76.26,26.53,60,10.29A35.17,35.17,0,0,0,10.28,60L26.52,76.26,39.43,89.17h0l11.9,11.9A10.65,10.65,0,1,0,66.39,86l-9.75-9.75L43.73,63.35h0L25.34,45A13.87,13.87,0,0,1,45,25.34L61.2,41.59h0L76.26,56.65,91.32,41.59h0l16.24-16.24A13.87,13.87,0,1,1,127.18,45l-1.2,1.2a10.65,10.65,0,1,0,15,15.06l1.2-1.2a35.19,35.19,0,0,0,0-49.73Z" fill="#e8e8e8"/><path d="M112.45,62.22a10.67,10.67,0,1,0,10.68,10.67A10.68,10.68,0,0,0,112.45,62.22Z" fill="#e8e8e8"/></g></g></g></svg>