<svg xmlns="http://www.w3.org/2000/svg" width="309.825" height="59" viewBox="0 0 309.825 59">
  <g id="Grupo_119" data-name="Grupo 119" transform="translate(-63.903 -23.856)">
    <g id="Grupo_104" data-name="Grupo 104">
      <rect id="Rectángulo_78" data-name="Rectángulo 78" width="0.639" height="51.883" transform="translate(254.115 28.762)" fill="#fff"/>
    </g>
    <text id="Tecnología_Médica_Celular" data-name="Tecnología 
Médica
Celular" transform="translate(279.728 41.856)" fill="#fff" font-size="17.367" font-family="VisbyCF-Bold, Visby CF" font-weight="700"><tspan x="0" y="0">Tecnología </tspan><tspan x="0" y="18.933">Médica</tspan><tspan x="0" y="37.865">Celular</tspan></text>
    <g id="Grupo_111" data-name="Grupo 111">
      <g id="Grupo_110" data-name="Grupo 110">
        <g id="Grupo_106" data-name="Grupo 106">
          <g id="Grupo_105" data-name="Grupo 105">
            <path id="Trazado_103" data-name="Trazado 103" d="M209.514,80.578a26.531,26.531,0,0,1-18.4-7.052,25.29,25.29,0,0,1-7.744-18.88,25.581,25.581,0,0,1,7.78-18.882,26.639,26.639,0,0,1,18.436-7.051c4.751,0,11.554,1.138,16.98,6.557a5.169,5.169,0,0,1-3.669,8.817,5.028,5.028,0,0,1-3.29-1.215,14.646,14.646,0,0,0-9.737-3.466c-8.764,0-14.885,6.267-14.885,15.24s6.15,15.239,14.956,15.239a14.185,14.185,0,0,0,9.65-3.414,5.063,5.063,0,0,1,3.34-1.251,5.145,5.145,0,0,1,3.639,8.789C221.121,79.438,214.287,80.578,209.514,80.578Z" fill="#fff"/>
          </g>
        </g>
        <g id="Grupo_107" data-name="Grupo 107">
          <path id="Trazado_104" data-name="Trazado 104" d="M172.945,33.611a17.49,17.49,0,0,0-24.709,0l-8.069,8.069L139.1,42.749l7.481,7.481,1.069-1.069,8.069-8.069a6.892,6.892,0,0,1,9.747,9.747l-.6.6a5.29,5.29,0,0,0,7.48,7.481l.6-.6a17.489,17.489,0,0,0,0-24.709Z" fill="#fff"/>
          <path id="Trazado_105" data-name="Trazado 105" d="M140.167,56.642l7.481-7.481h0l-6.412-6.412h0l-1.069-1.069L132.1,33.611A17.472,17.472,0,1,0,107.389,58.32l8.069,8.068h0l6.413,6.413h0l5.912,5.911a5.29,5.29,0,1,0,7.481-7.481l-4.843-4.843h0l-6.412-6.412h0l-9.137-9.137a6.891,6.891,0,0,1,9.745-9.747l8.069,8.069h0Z" fill="#fff"/>
          <path id="Trazado_106" data-name="Trazado 106" d="M158.149,70.015a5.3,5.3,0,1,1,5.3-5.3A5.308,5.308,0,0,1,158.149,70.015Z" fill="#fff"/>
        </g>
        <g id="Grupo_109" data-name="Grupo 109">
          <g id="Grupo_108" data-name="Grupo 108">
            <path id="Trazado_107" data-name="Trazado 107" d="M86.805,28.8H68.862a4.912,4.912,0,0,0-4.953,4.576,4.825,4.825,0,0,0,4.813,5.062h7.423V74.514a5.33,5.33,0,0,0,5.33,5.33h0a5.33,5.33,0,0,0,5.33-5.33Z" fill="#fff"/>
          </g>
        </g>
      </g>
      <path id="Trazado_108" data-name="Trazado 108" d="M94.663,39.1a5.3,5.3,0,1,1,5.3-5.3A5.309,5.309,0,0,1,94.663,39.1Z" fill="#fff"/>
    </g>
  </g>
</svg>
