<svg xmlns="http://www.w3.org/2000/svg" viewBox="0 0 41.96 41.96"><g id="Capa_2" data-name="Capa 2"><g id="Capa_1-2" data-name="Capa 1"><path d="M21,0A21,21,0,1,0,42,21,21,21,0,0,0,21,0ZM33.67,15.39c0,.24,0,.49,0,.74A18.06,18.06,0,0,1,15.45,34.36a18.08,18.08,0,0,1-9.82-2.88.14.14,0,0,1-.06-.18.14.14,0,0,1,.16-.1,12.59,12.59,0,0,0,9-2.35A6.5,6.5,0,0,1,9,24.36a.17.17,0,0,1,0-.15.15.15,0,0,1,.14-.05,6.33,6.33,0,0,0,2.17,0A6.53,6.53,0,0,1,6.8,18v-.08a.13.13,0,0,1,.08-.13.14.14,0,0,1,.15,0,6.5,6.5,0,0,0,2.27.73,6.51,6.51,0,0,1-1.57-8.36.14.14,0,0,1,.12-.08.15.15,0,0,1,.14.06,18,18,0,0,0,12.78,6.57,6.14,6.14,0,0,1-.13-1.29,6.51,6.51,0,0,1,11.2-4.51,12.45,12.45,0,0,0,3.9-1.51.17.17,0,0,1,.18,0,.16.16,0,0,1,0,.17,6.47,6.47,0,0,1-2.29,3.22,13,13,0,0,0,2.94-.89.16.16,0,0,1,.18,0,.17.17,0,0,1,0,.19,13.06,13.06,0,0,1-3.14,3.28Z" fill="#fff"/></g></g></svg>