<svg xmlns="http://www.w3.org/2000/svg" xmlns:xlink="http://www.w3.org/1999/xlink" viewBox="0 0 336.91 320.77"><defs><clipPath id="clip-path" transform="translate(88.73 75.62)"><path d="M16.73,16.74a57.3,57.3,0,0,0,0,80.93l26.43,26.42,21,21h0l19.36,19.37A17.33,17.33,0,0,0,108,140L92.16,124.09l-21-21h0L41.24,73.16A22.57,22.57,0,0,1,73.15,41.24L99.58,67.67h0l24.5,24.5,24.51-24.5-21-21h0L97.66,16.74a57.28,57.28,0,0,0-80.93,0" fill="none"/></clipPath><linearGradient id="Degradado_sin_nombre_2" x1="-328.35" y1="741.35" x2="-326.71" y2="741.35" gradientTransform="matrix(0, 248.57, 248.57, 0, -184202.66, 81521.48)" gradientUnits="userSpaceOnUse"><stop offset="0" stop-color="#020654"/><stop offset="0.06" stop-color="#0b357d"/><stop offset="0.13" stop-color="#1463a5"/><stop offset="0.2" stop-color="#1b85c2"/><stop offset="0.25" stop-color="#1f9ad4"/><stop offset="0.29" stop-color="#20a1da"/><stop offset="0.33" stop-color="#22ace4"/><stop offset="0.43" stop-color="#25bbf3"/><stop offset="0.54" stop-color="#26c4fc"/><stop offset="0.7" stop-color="#27c7ff"/><stop offset="1" stop-color="#27c7ff"/></linearGradient></defs><g id="Capa_2" data-name="Capa 2"><g id="Capa_1-2" data-name="Capa 1"><path d="M217.24,104.69A17.33,17.33,0,0,1,205,75.11l1.95-2A22.57,22.57,0,0,0,175,41.24L145.09,71.17l-24.51-24.5,29.93-29.93a57.23,57.23,0,0,1,80.93,80.93l-1.95,2a17.24,17.24,0,0,1-12.25,5.07" transform="translate(88.73 75.62)" fill="#fff"/><g clip-path="url(#clip-path)"><rect x="-42.92" y="-28.6" width="228.86" height="226.74" transform="translate(49.35 161.82) rotate(-50.59)" fill="url(#Degradado_sin_nombre_2)"/></g><path d="M183,136a17.37,17.37,0,1,1,17.37-17.37A17.39,17.39,0,0,1,183,136" transform="translate(88.73 75.62)" fill="#fff"/></g></g></svg>