<svg xmlns="http://www.w3.org/2000/svg" xmlns:xlink="http://www.w3.org/1999/xlink" viewBox="0 0 2247.48 704.52"><defs><clipPath id="clip-path" transform="translate(0 160.3)"><path d="M322.46,38c-50.5,50.51-50.49,132.71,0,183.22L382.31,281l47.55,47.55,43.84,43.84a39.23,39.23,0,1,0,55.48-55.47L493.27,281l-47.56-47.55L378,165.7a51.1,51.1,0,0,1,72.26-72.28l59.84,59.83,55.47,55.49L621,153.26l-47.55-47.55-7.93-7.93L505.7,38a129.69,129.69,0,0,0-183.24,0" fill="none"/></clipPath><linearGradient id="Degradado_sin_nombre_6" x1="2501.43" y1="840.89" x2="2504.62" y2="840.89" gradientTransform="matrix(0, 124.59, 124.59, 0, -104319.81, -311721.05)" gradientUnits="userSpaceOnUse"><stop offset="0" stop-color="#020654"/><stop offset="0.11" stop-color="#0c3980"/><stop offset="0.22" stop-color="#1467a8"/><stop offset="0.33" stop-color="#1b89c6"/><stop offset="0.41" stop-color="#1f9ed8"/><stop offset="0.47" stop-color="#20a5de"/><stop offset="0.53" stop-color="#22b0e7"/><stop offset="0.65" stop-color="#25bff5"/><stop offset="0.8" stop-color="#26c8fd"/><stop offset="1" stop-color="#27cbff"/></linearGradient><clipPath id="clip-path-2" transform="translate(0 160.3)"><path d="M188.78,39.32A39.32,39.32,0,1,0,228.1,0a39.37,39.37,0,0,0-39.32,39.32" fill="none"/></clipPath><linearGradient id="Degradado_sin_nombre_4" x1="2492.84" y1="830.89" x2="2496.03" y2="830.89" gradientTransform="matrix(0, 85.31, 85.31, 0, -70658.27, -212744.56)" gradientUnits="userSpaceOnUse"><stop offset="0" stop-color="#020654"/><stop offset="0.09" stop-color="#0c3980"/><stop offset="0.18" stop-color="#1467a8"/><stop offset="0.27" stop-color="#1b89c6"/><stop offset="0.34" stop-color="#1f9ed8"/><stop offset="0.38" stop-color="#20a5de"/><stop offset="0.45" stop-color="#22b0e7"/><stop offset="0.6" stop-color="#25bff5"/><stop offset="0.76" stop-color="#26c8fd"/><stop offset="1" stop-color="#27cbff"/></linearGradient></defs><g id="Capa_2" data-name="Capa 2"><g id="Capa_1-2" data-name="Capa 1"><rect x="1410.52" y="162.28" width="4.74" height="384.74" fill="#cecdce"/><polygon points="1665.51 184.16 1643.48 184.16 1643.48 259.38 1625.83 259.38 1625.83 184.16 1603.81 184.16 1603.81 167.93 1665.51 167.93 1665.51 184.16" fill="#b5b5b5"/><path d="M1725.65,72.29h-50.11C1678,81.44,1686,86.21,1696,86.21c6.57,0,12.36-1.81,17.25-6.06l7.86,8.38c-5.53,7-15.2,11.85-27.05,11.85-18.42,0-34.9-12.5-34.9-34.78,0-22.54,16.74-34.78,33.87-34.78s36.33,12,32.59,41.47m-50.36-12.62h35c-1-9.53-9-14.3-17.14-14.3s-15.71,4.64-17.9,14.3" transform="translate(0 160.3)" fill="#b5b5b5"/><path d="M1732.72,65.6c0-22.67,17.65-34.78,35.3-34.78a32.47,32.47,0,0,1,28.85,16.49l-12.62,8.11a19.18,19.18,0,0,0-16.11-9c-9.66,0-18.41,7.21-18.41,19.19s8.75,19.19,18.41,19.19a19.19,19.19,0,0,0,16.11-9l12.62,8.12A32.73,32.73,0,0,1,1768,100.38c-17.65,0-35.3-12.11-35.3-34.78" transform="translate(0 160.3)" fill="#b5b5b5"/><path d="M1869.89,59.67V99.09h-17.26V62.5c0-9.78-5.28-16.22-14.3-16.22S1824,52.72,1824,62.5V99.09h-17.26v-67H1824v9.14c3.74-5.92,10.44-10.43,20.48-10.43,13.79,0,25.38,8.5,25.38,28.85" transform="translate(0 160.3)" fill="#b5b5b5"/><path d="M1879.79,65.6c0-22.67,17.78-34.78,35.29-34.78s35.3,12.11,35.3,34.78-17.91,34.78-35.3,34.78-35.29-12.11-35.29-34.78m53.46,0c0-12-8.5-19.19-18.17-19.19s-18.28,7.21-18.28,19.19,8.63,19.19,18.28,19.19,18.17-7.21,18.17-19.19" transform="translate(0 160.3)" fill="#b5b5b5"/><rect x="1960.28" y="167.93" width="17.26" height="91.46" fill="#b5b5b5"/><path d="M1987.46,65.6c0-22.67,17.77-34.78,35.29-34.78S2058,42.93,2058,65.6s-17.9,34.78-35.29,34.78-35.29-12.11-35.29-34.78m53.45,0c0-12-8.5-19.19-18.16-19.19s-18.29,7.21-18.29,19.19,8.63,19.19,18.29,19.19,18.16-7.21,18.16-19.19" transform="translate(0 160.3)" fill="#b5b5b5"/><path d="M2136,32.11v62c0,25.63-20.1,31.81-35.3,31.81-7.73,0-15.45-1.54-19.45-4.12v-14c3.09,2.06,9.79,3.73,16.36,3.73,12.88,0,21.12-6,21.12-16.23V90.07h-.77c-1.68,3.74-9.15,10.31-21,10.31-15.45,0-32.2-11.6-32.2-34.78s16.75-34.78,32.2-34.78c11.85,0,19.32,6.57,21,10.3h.77v-9ZM2119.08,65.6c0-12.63-8.88-19.32-18.68-19.32s-18.67,6.82-18.67,19.32,9,19.32,18.67,19.32,18.68-6.7,18.68-19.32" transform="translate(0 160.3)" fill="#b5b5b5"/><path d="M2149.08,32.11h17.26v67h-17.26Zm10.3-28.34h15.33L2165.44,24h-14.3Z" transform="translate(0 160.3)" fill="#b5b5b5"/><path d="M2176.25,65.6c0-23.19,16.62-34.78,32.2-34.78,12,0,19.71,6.57,21.39,10.3h.38v-9h17.26v67h-17.26v-9h-.38c-1.68,3.74-9.41,10.31-21.39,10.31-15.58,0-32.2-11.6-32.2-34.78m54.36,0c0-12.63-9-19.32-18.68-19.32s-18.68,6.82-18.68,19.32,9,19.32,18.68,19.32,18.68-6.7,18.68-19.32" transform="translate(0 160.3)" fill="#b5b5b5"/><polygon points="1607.03 308.32 1626.48 308.32 1656.36 377.24 1686.25 308.32 1705.7 308.32 1705.7 399.78 1688.05 399.78 1688.05 342.33 1687.4 342.33 1662.8 399.78 1649.79 399.78 1625.32 342.33 1624.67 342.33 1624.67 399.78 1607.03 399.78 1607.03 308.32" fill="#020654"/><path d="M1782.06,212.69H1732c2.45,9.15,10.43,13.91,20.48,13.91,6.57,0,12.37-1.8,17.26-6l7.86,8.37c-5.54,7-15.2,11.85-27,11.85-18.42,0-34.91-12.49-34.91-34.78,0-22.54,16.75-34.78,33.88-34.78s36.32,12,32.59,41.48m-50.36-12.62h35c-1-9.53-9-14.3-17.13-14.3s-15.72,4.63-17.9,14.3m25.5-35.68h-14.3l8.24-20.23h15.33Z" transform="translate(0 160.3)" fill="#020654"/><path d="M1860.36,148v91.45H1843.1v-9h-.39c-1.67,3.74-9.4,10.31-21.38,10.31-15.58,0-32.2-11.59-32.2-34.78s16.62-34.78,32.2-34.78c12,0,19.71,6.57,21.38,10.31h.26V148Zm-16.87,58c0-12.62-9-19.32-18.68-19.32s-18.68,6.83-18.68,19.32,9,19.32,18.68,19.32,18.68-6.7,18.68-19.32" transform="translate(0 160.3)" fill="#020654"/><path d="M1873.48,148h17.26v15.2h-17.26Zm0,24.47h17.26v67h-17.26Z" transform="translate(0 160.3)" fill="#020654"/><path d="M1900.66,206c0-22.67,17.64-34.78,35.29-34.78a32.47,32.47,0,0,1,28.85,16.49l-12.62,8.12a19.17,19.17,0,0,0-16.1-9c-9.66,0-18.42,7.21-18.42,19.19s8.76,19.19,18.42,19.19a19.18,19.18,0,0,0,16.1-9l12.62,8.11A32.73,32.73,0,0,1,1936,240.77c-17.65,0-35.29-12.11-35.29-34.78" transform="translate(0 160.3)" fill="#020654"/><path d="M1969.94,206c0-23.18,16.62-34.78,32.2-34.78,12,0,19.71,6.57,21.38,10.31h.39v-9h17.26v67h-17.26v-9h-.39c-1.67,3.74-9.4,10.31-21.38,10.31-15.58,0-32.2-11.59-32.2-34.78m54.36,0c0-12.62-9-19.32-18.68-19.32s-18.68,6.83-18.68,19.32,9,19.32,18.68,19.32,18.68-6.7,18.68-19.32" transform="translate(0 160.3)" fill="#020654"/><path d="M1605.74,334.15c0-28.47,21.51-47,47.14-47,12.5,0,27.44,4.38,37.1,19.84l-12.88,8.89c-5.93-8.5-14.82-12-23.7-12-16.23,0-29.63,11.72-29.63,30.27s13.53,30.27,29.76,30.27c9.14,0,17.64-3.48,23.57-12l12.88,8.89c-9.66,15.46-24.6,19.83-37.1,19.83-25.76,0-47.14-18.54-47.14-47" transform="translate(0 160.3)" fill="#1a88c4"/><path d="M1761.07,353.08H1711c2.45,9.15,10.43,13.92,20.48,13.92,6.57,0,12.36-1.81,17.26-6.06l7.86,8.37c-5.54,7-15.2,11.85-27,11.85-18.42,0-34.91-12.49-34.91-34.77,0-22.54,16.74-34.78,33.88-34.78s36.32,12,32.59,41.47m-50.37-12.62h35c-1-9.53-9-14.3-17.14-14.3s-15.71,4.64-17.9,14.3" transform="translate(0 160.3)" fill="#1a88c4"/><rect x="1771.36" y="448.72" width="17.26" height="91.46" fill="#1a88c4"/><path d="M1864.87,312.9v67h-17.26v-9.15c-3.74,5.93-10.57,10.44-20.61,10.44-13.66,0-25.25-8.51-25.25-28.86V312.9H1819v36.58c0,9.79,5.28,16.23,14.3,16.23,8.76,0,14.3-6.44,14.3-16.23V312.9Z" transform="translate(0 160.3)" fill="#1a88c4"/><rect x="1877.99" y="448.72" width="17.26" height="91.46" fill="#1a88c4"/><path d="M1905.16,346.39c0-23.19,16.62-34.78,32.2-34.78,12,0,19.71,6.57,21.39,10.3h.38v-9h17.26v67h-17.26v-9h-.38c-1.68,3.74-9.41,10.31-21.39,10.31-15.58,0-32.2-11.6-32.2-34.78m54.36,0c0-12.63-9-19.32-18.68-19.32s-18.67,6.82-18.67,19.32,9,19.32,18.67,19.32,18.68-6.7,18.68-19.32" transform="translate(0 160.3)" fill="#1a88c4"/><path d="M2032.28,312.12v16.49a24.85,24.85,0,0,0-4.38-.39c-13,0-21.12,9-21.12,22.42v29.24h-17.26v-67h17.26v17.38c2.31-10.3,8.88-18.67,21-18.67a18.2,18.2,0,0,1,4.51.51" transform="translate(0 160.3)" fill="#1a88c4"/><path d="M1079.78,386.23c-52.41,0-100.87-18.57-136.46-52.3-37.56-35.61-57.42-84-57.42-140,0-55.16,20.48-104.89,57.69-140C979.3,20.19,1027.85,1.62,1080.3,1.62c35.23,0,85.68,8.44,125.92,48.63A38.33,38.33,0,0,1,1179,115.63a37.33,37.33,0,0,1-24.4-9c-19.48-16.82-44.44-25.7-72.2-25.7-65,0-110.38,46.47-110.38,113s45.61,113,110.9,113c28.31,0,52.39-8.52,71.56-25.32a37.57,37.57,0,0,1,24.77-9.27,38.16,38.16,0,0,1,27,65.17c-40.41,40.26-91.08,48.72-126.47,48.72" transform="translate(0 160.3)" fill="#020654"/><path d="M808.59,38a129.67,129.67,0,0,0-183.22,0L565.53,97.78l-7.92,7.93,55.47,55.47,7.93-7.92,59.83-59.84a51.11,51.11,0,0,1,72.28,72.27l-4.42,4.43a39.22,39.22,0,1,0,55.47,55.47l4.42-4.42a129.67,129.67,0,0,0,0-183.22" transform="translate(0 160.3)" fill="#020654"/><g clip-path="url(#clip-path)"><rect x="195.17" y="-64.31" width="502.63" height="512.55" transform="translate(-31.97 437.57) rotate(-33.37)" fill="url(#Degradado_sin_nombre_6)"/></g><path d="M698.88,307.9a39.32,39.32,0,1,1,39.32-39.32,39.37,39.37,0,0,1-39.32,39.32" transform="translate(0 160.3)" fill="#020654"/><path d="M169.83,2.3H36.77C17.55,2.3,1,17,0,36.23a35.78,35.78,0,0,0,35.7,37.54h55V341.26a39.53,39.53,0,1,0,79.05,0Z" transform="translate(0 160.3)" fill="#020654"/><g clip-path="url(#clip-path-2)"><rect x="173.29" y="-15.48" width="109.61" height="109.61" transform="translate(19.13 299.14) rotate(-35.25)" fill="url(#Degradado_sin_nombre_4)"/></g></g></g></svg>